<svg width="247" height="247" viewBox="0 0 247 247" fill="none" xmlns="http://www.w3.org/2000/svg">
<path d="M13.994 158.005C13.994 198.239 46.7063 230.952 86.9407 230.952C100.236 230.952 112.656 227.453 123.327 221.155C133.997 227.278 146.418 230.952 159.713 230.952C199.947 230.952 232.659 198.239 232.659 158.005C232.659 144.71 229.161 132.29 222.863 121.619C228.986 110.948 232.659 98.528 232.659 85.2331C232.659 44.9987 199.947 12.2864 159.713 12.2864C146.418 12.2864 133.998 15.7851 123.327 22.0826C112.656 15.96 100.236 12.2864 86.9407 12.2864C46.7063 12.2864 13.994 44.9987 13.994 85.2331C13.994 98.528 17.4926 110.948 23.7902 121.619C17.6675 132.29 13.994 144.71 13.994 158.005ZM123.502 85.0582C143.619 85.0582 159.887 101.327 159.887 121.444C159.887 141.561 143.619 157.83 123.502 157.83C103.384 157.83 87.1156 141.561 87.1156 121.444C87.1157 101.327 103.209 85.0582 123.502 85.0582Z" fill="#3868FF"/>
<mask id="mask0_98_657" style="mask-type:alpha" maskUnits="userSpaceOnUse" x="13" y="12" width="220" height="219">
<path d="M13.994 158.005C13.994 198.239 46.7063 230.952 86.9407 230.952C100.236 230.952 112.656 227.453 123.327 221.155C133.997 227.278 146.418 230.952 159.713 230.952C199.947 230.952 232.659 198.239 232.659 158.005C232.659 144.71 229.161 132.29 222.863 121.619C228.986 110.948 232.659 98.528 232.659 85.2331C232.659 44.9987 199.947 12.2864 159.713 12.2864C146.418 12.2864 133.998 15.7851 123.327 22.0826C112.656 15.96 100.236 12.2864 86.9407 12.2864C46.7063 12.2864 13.994 44.9987 13.994 85.2331C13.994 98.528 17.4926 110.948 23.7902 121.619C17.6675 132.29 13.994 144.71 13.994 158.005ZM123.502 85.0582C143.619 85.0582 159.887 101.327 159.887 121.444C159.887 141.561 143.619 157.83 123.502 157.83C103.384 157.83 87.1156 141.561 87.1156 121.444C87.1157 101.327 103.209 85.0582 123.502 85.0582Z" fill="#3868FF"/>
</mask>
<g mask="url(#mask0_98_657)">
<g filter="url(#filter0_f_98_657)">
<path d="M-80.508 113.065L179.686 113.065L179.686 -22.8919L-80.508 -22.8919L-80.508 113.065Z" fill="#8F5BFF"/>
<ellipse cx="128.1" cy="246.416" rx="131.193" ry="90.0963" transform="rotate(165 128.1 246.416)" fill="#00F0FF"/>
</g>
</g>
<g clip-path="url(#clip0_98_657)">
<path d="M171.911 142.211L246.654 123.525L171.912 104.839L189.524 57.1568L141.841 74.7696L123.154 0.0248892L104.469 74.7687L56.786 57.1562L74.3985 104.839L-0.345533 123.525L74.3989 142.211L56.7859 189.895L104.469 172.282L123.154 247.025L141.84 172.281L189.524 189.894L171.911 142.211Z" fill="white"/>
</g>
<g clip-path="url(#clip1_98_657)">
<path d="M134.755 131.575L177.555 120.875L134.755 110.175L124.055 67.375L113.355 110.175L70.555 120.875L113.355 131.575L124.055 174.375L134.755 131.575Z" fill="#6C71FF"/>
</g>
<defs>
<filter id="filter0_f_98_657" x="-185.467" y="-127.851" width="547.399" height="572.667" filterUnits="userSpaceOnUse" color-interpolation-filters="sRGB">
<feFlood flood-opacity="0" result="BackgroundImageFix"/>
<feBlend mode="normal" in="SourceGraphic" in2="BackgroundImageFix" result="shape"/>
<feGaussianBlur stdDeviation="52.4797" result="effect1_foregroundBlur_98_657"/>
</filter>
<clipPath id="clip0_98_657">
<rect width="246.654" height="246.654" fill="white" transform="translate(246.654 0.0249023) rotate(90)"/>
</clipPath>
<clipPath id="clip1_98_657">
<rect width="106.709" height="106.709" fill="white" transform="translate(177.555 67.375) rotate(90)"/>
</clipPath>
</defs>
</svg>
