<svg width="20" height="19" viewBox="0 0 20 19" fill="none" xmlns="http://www.w3.org/2000/svg">
<path d="M6.4547 13.4434C6.7126 13.626 7.02106 13.7235 7.33706 13.7225V13.7183C7.63503 13.7189 7.92658 13.632 8.17558 13.4684C8.42458 13.3047 8.62007 13.0715 8.73776 12.7979L9.3848 10.8304C9.53427 10.3846 9.78527 9.97986 10.1182 9.64791C10.451 9.31595 10.8565 9.06601 11.3027 8.91781L13.1794 8.30773C13.4817 8.20155 13.7429 8.00269 13.9256 7.73945C14.1084 7.47631 14.2035 7.16219 14.1974 6.84184C14.1913 6.52149 14.0844 6.2112 13.8917 5.95515C13.6991 5.69909 13.4307 5.5103 13.1246 5.41564L11.2721 4.814C10.824 4.6649 10.4168 4.41334 10.0829 4.0793C9.74907 3.74528 9.49774 3.33799 9.34891 2.88981L8.73882 1.01418C8.63242 0.715439 8.43556 0.457273 8.17569 0.275526C7.91582 0.0937889 7.60581 -0.00250479 7.28869 4.95335e-05C6.97158 0.00260386 6.66313 0.103869 6.40622 0.289775C6.1493 0.475681 5.95667 0.736993 5.85509 1.0374L5.23971 2.92887C5.09133 3.36401 4.84606 3.75979 4.52243 4.08634C4.19879 4.4129 3.80523 4.6617 3.37142 4.814L1.49574 5.41669C1.27263 5.49473 1.07072 5.62357 0.90597 5.79306C0.741223 5.96255 0.618148 6.16803 0.546488 6.39327C0.474817 6.6185 0.456514 6.85731 0.493025 7.09084C0.529546 7.32436 0.619868 7.54618 0.756866 7.73881C0.943579 8.00164 1.20841 8.1988 1.51368 8.30245L3.36509 8.90304C3.81435 9.05334 4.22239 9.30635 4.55678 9.64189C4.64658 9.73098 4.73049 9.82587 4.808 9.92582C5.01824 10.1979 5.18065 10.5038 5.28827 10.8304L5.89837 12.7039C6.00231 13.0023 6.1968 13.2608 6.4547 13.4434ZM14.5471 18.771C14.346 18.6276 14.1947 18.425 14.1143 18.1915L13.7681 17.1286C13.7008 16.9265 13.5877 16.7426 13.4377 16.5913C13.2873 16.4405 13.1037 16.3269 12.9015 16.2599L11.8555 15.919C11.6123 15.8374 11.4012 15.6806 11.2528 15.4714C11.1079 15.2685 11.0303 15.0252 11.0311 14.7759C11.0314 14.5249 11.11 14.2803 11.2559 14.0761C11.4008 13.8708 11.607 13.7167 11.8449 13.6359L12.9068 13.2918C13.1042 13.2217 13.2829 13.1074 13.4293 12.9576C13.5757 12.8077 13.6858 12.6263 13.7512 12.4274L14.0932 11.3803C14.1737 11.1437 14.3256 10.9377 14.5282 10.7912C14.7307 10.6446 14.9737 10.5646 15.2237 10.5622C15.4737 10.5598 15.7183 10.635 15.9236 10.7776C16.1289 10.9202 16.2849 11.1231 16.37 11.3581L16.7173 12.4284C16.7852 12.6291 16.8987 12.8113 17.0489 12.9606C17.1991 13.1101 17.3818 13.2227 17.5828 13.2897L18.6299 13.6306C18.8713 13.7061 19.0827 13.8557 19.2344 14.0581C19.386 14.2605 19.47 14.5056 19.4745 14.7583C19.4791 15.0112 19.4039 15.2591 19.2597 15.4669C19.1156 15.6746 18.9095 15.8317 18.6711 15.9158L17.6008 16.2631C17.4001 16.3315 17.2178 16.4448 17.0677 16.5945C16.9175 16.7452 16.8044 16.9288 16.7373 17.1307L16.3974 18.1746C16.3156 18.4177 16.1585 18.6285 15.9488 18.7762C15.7462 18.9219 15.5029 19.0002 15.2532 19C14.9996 19 14.7524 18.9198 14.5471 18.771Z" fill="current"/>
</svg>
