<svg width="19" height="20" viewBox="0 0 19 20" fill="none" xmlns="http://www.w3.org/2000/svg">
<path d="M10.9508 1.43821C10.1128 0.731209 8.8872 0.731209 8.0492 1.43821L1.29916 7.13275C0.79241 7.56026 0.5 8.1895 0.5 8.8525V18.1576C0.5 19.1241 1.2835 19.9076 2.25 19.9076H5.25C6.2165 19.9076 7 19.1241 7 18.1576V14.155C7 13.4757 7.5418 12.923 8.2169 12.9054H10.7831C11.4582 12.923 12 13.4757 12 14.155V18.1576C12 19.1241 12.7835 19.9076 13.75 19.9076H16.75C17.7165 19.9076 18.5 19.1241 18.5 18.1576V8.8525C18.5 8.1895 18.2076 7.56026 17.7008 7.13275L10.9508 1.43821Z" fill="#666666"/>
</svg>
