<svg width="20" height="20" viewBox="0 0 20 20" fill="none" xmlns="http://www.w3.org/2000/svg">
<path d="M8.38509 0.815693C7.11136 0.816271 5.85585 1.11835 4.72119 1.69723C3.58652 2.27612 2.6049 3.11538 1.85658 4.14642C1.10825 5.17745 0.614456 6.37099 0.415556 7.62947C0.216656 8.88796 0.318298 10.1757 0.712172 11.3873C1.10605 12.599 1.78097 13.7002 2.68178 14.601C3.58259 15.5018 4.68371 16.1766 5.89514 16.5701C7.10657 16.9637 8.39391 17.065 9.65194 16.8656C10.91 16.6662 12.103 16.1719 13.1335 15.423L17.1537 19.4445C17.3913 19.6822 17.7136 19.8157 18.0496 19.8157C18.3856 19.8157 18.7079 19.6822 18.9454 19.4445C19.183 19.2068 19.3165 18.8845 19.3165 18.5484C19.3165 18.2122 19.183 17.8899 18.9454 17.6522L14.9252 13.6307C15.8014 12.4259 16.3271 11.0019 16.4439 9.51655C16.5606 8.0312 16.2639 6.54252 15.5867 5.21551C14.9095 3.88849 13.8781 2.77498 12.607 1.99838C11.3358 1.22178 9.87456 0.812424 8.38509 0.815693ZM8.38509 14.4318C7.28943 14.4318 6.21837 14.1068 5.30736 13.4979C4.39635 12.889 3.68631 12.0236 3.26702 11.011C2.84773 9.99844 2.73802 8.88424 2.95177 7.8093C3.16553 6.73436 3.69314 5.74697 4.46789 4.97198C5.24263 4.197 6.22973 3.66923 7.30433 3.45541C8.37894 3.24159 9.4928 3.35133 10.5051 3.77075C11.5173 4.19017 12.3825 4.90043 12.9912 5.81172C13.5999 6.723 13.9248 7.79439 13.9248 8.89039C13.9232 10.3596 13.339 11.7681 12.3004 12.8069C11.2619 13.8458 9.85381 14.4302 8.38509 14.4318Z" fill="#666666"/>
</svg>
