<svg width="23" height="20" viewBox="0 0 23 20" fill="none" xmlns="http://www.w3.org/2000/svg">
<path d="M21.1678 1.99473C20.021 0.852049 18.468 0.210449 16.849 0.210449C15.23 0.210449 13.677 0.852049 12.5301 1.99473L11.6583 2.86658L10.7864 1.99473C9.63951 0.852049 8.08651 0.210449 6.46753 0.210449C4.84855 0.210449 3.29556 0.852049 2.14866 1.99473C1.00548 3.143 0.363678 4.69734 0.363678 6.31764C0.363678 7.93794 1.00548 9.49228 2.14866 10.6406L11.0851 19.577C11.1601 19.6526 11.2494 19.7127 11.3478 19.7537C11.4462 19.7947 11.5517 19.8158 11.6583 19.8158C11.7648 19.8158 11.8703 19.7947 11.9687 19.7537C12.0671 19.7127 12.1564 19.6526 12.2314 19.577L21.1678 10.6406C22.311 9.49228 22.9528 7.93794 22.9528 6.31764C22.9528 4.69734 22.311 3.143 21.1678 1.99473Z" fill="currentColor"/>
</svg>
