<svg width="11" height="14" viewBox="0 0 11 14" fill="none" xmlns="http://www.w3.org/2000/svg">
<path d="M9.15164 9.65164L8.42083 10.3744C7.88218 10.903 7.18332 12.2797 6.32389 13.1106C5.7869 13.6299 4.93492 13.6298 4.39799 13.1105L2.24857 10.3227C1.97843 10.0574 1.75231 9.83376 1.57017 9.65164C-0.52339 7.55809 -0.52339 4.16373 1.57017 2.07017C3.66373 -0.0233899 7.05809 -0.0233899 9.15164 2.07017C11.2452 4.16373 11.2452 7.55809 9.15164 9.65164ZM6.90023 6.03004C6.90023 5.17988 6.21104 4.4907 5.36091 4.4907C4.51078 4.4907 3.82158 5.17988 3.82158 6.03004C3.82158 6.88017 4.51078 7.56936 5.36091 7.56936C6.21104 7.56936 6.90023 6.88017 6.90023 6.03004Z" fill="white"/>
</svg>
