<svg width="20" height="20" viewBox="0 0 20 20" fill="none" xmlns="http://www.w3.org/2000/svg">
<path d="M10.2801 14.5307L10.3527 14.4466C10.5706 14.153 10.5464 13.7363 10.2801 13.47L7.56078 10.7507L14.2505 10.7504L14.3523 10.7435C14.7183 10.6939 15.0005 10.3801 15.0005 10.0004L14.9936 9.8986C14.944 9.5325 14.6302 9.2504 14.2505 9.2504L7.55878 9.2507L10.2807 6.52997L10.3534 6.44587C10.5713 6.1523 10.5471 5.73563 10.2809 5.46931C9.9881 5.17637 9.5132 5.17628 9.2203 5.46911L5.21873 9.4691L5.14609 9.5532C4.92816 9.8468 4.95233 10.2636 5.21863 10.5299L9.2195 14.5307L9.3036 14.6033C9.5972 14.8212 10.0138 14.797 10.2801 14.5307ZM10 0C4.47715 0 0 4.47715 0 10C0 15.5228 4.47715 20 10 20C15.5228 20 20 15.5228 20 10C20 4.47715 15.5228 0 10 0ZM10 18.5C5.30558 18.5 1.5 14.6944 1.5 10C1.5 5.30558 5.30558 1.5 10 1.5C14.6944 1.5 18.5 5.30558 18.5 10C18.5 14.6944 14.6944 18.5 10 18.5Z" fill="white"/>
</svg>
